<?xml version="1.0" encoding="UTF-8"?>
<svg xmlns="http://www.w3.org/2000/svg" viewBox="0 0 131.33 203.84">
  <defs>
    <style>
      .cls-1 {
        fill: #e9c922;
      }

      .cls-2 {
        fill: #ca5f28;
      }

      .cls-3 {
        fill: #59662d;
      }

      .cls-4 {
        fill: #fce47a;
      }

      .cls-5 {
        fill: #fef5cb;
      }

      .cls-6 {
        fill: #fad961;
      }

      .cls-7 {
        fill: #f3d02e;
      }

      .cls-8 {
        fill: #dde89b;
      }

      .cls-9 {
        fill: #e7bd20;
      }

      .cls-10 {
        fill: #c99a2c;
      }

      .cls-11 {
        fill: #761113;
      }

      .cls-12 {
        fill: #f0c522;
      }

      .cls-13 {
        fill: #95a24f;
      }

      .cls-14 {
        fill: #8aa03b;
      }

      .cls-15 {
        fill: #fdec8d;
      }

      .cls-16 {
        fill: #b3c751;
      }

      .cls-17 {
        fill: #768436;
      }

      .cls-18 {
        fill: #fba92d;
      }
    </style>
  </defs>
  <g id="Images">
    <g>
      <path class="cls-11" d="M29.72,57.12s.36-7.43.36-15.94c0-7.34-.09-8.77-.72-9.4-.72-.72-2.42-.9-6.89-.9-10.3,0-11.55.27-12.44,1.16-.81.81-.98,3.76-.98,8.68,0,11.19.45,16.56.45,16.56-2.6.27-6.36.27-9.49.27,0,0,.54-6.54.54-22.65C.54,8.06,0,1.16,0,1.16c2.69-.27,5.28-.27,7.97-.27,0,0-.27,7.16-.27,14.32,0,4.83,0,7.97.98,8.95.72.72,1.88.9,5.73.9,8.95,0,12.35-.27,13.43-1.34.9-.9.9-2.24.9-8.5,0-5.82-.54-14.77-.54-14.77,3.13-.18,7.25,0,9.67.18,0,0-.18,6.54-.18,14.15,0,33.57.45,41.9.45,41.9-2.24.45-5.55.54-8.42.45Z"/>
      <path class="cls-11" d="M64.46,0c13.61,0,19.25,5.82,19.34,31.33,0,21.04-5.73,26.86-18.53,26.86-14.77,0-18.62-5.82-18.62-29.09-.09-23.28,5.73-29.1,17.81-29.1ZM56.49,48.34c.9,1.79,3.13,2.51,7.61,2.51,6.71,0,8.86-.45,9.76-2.24.98-1.97,1.16-8.77,1.16-19.96,0-9.85-.27-15.22-1.16-17.01s-3.94-1.97-7.97-1.97c-6.71,0-8.5.63-9.4,2.42-.81,1.7-1.16,8.95-1.16,20.14,0,9.4.27,14.32,1.16,16.11Z"/>
      <path class="cls-11" d="M95.34,57.38c-2.96,0-6.71-.18-7.97-.54,5.1-17.46,9.85-35.81,14.68-55.95,1.97-.18,4.57-.36,6.98-.36s4.66.18,6,.36c4.57,19.7,9.94,37.78,16.29,56.4-1.34.18-2.95.18-4.92.18-2.95,0-5.82-.18-6.36-.45,0,0-2.06-10.65-3.85-16.02-.9-2.6-1.34-2.86-6.45-2.86h-.45c-7.16,0-7.88.54-8.5,3.04-1.34,5.28-2.6,16.11-2.6,16.11-.72.09-1.79.09-2.86.09ZM111.54,16.11c-1.16-4.48-1.79-6.27-3.13-6.27s-2.15,2.51-3.31,6.98l-2.42,9.58c-.45,1.88-.81,3.22-.81,4.12,0,2.06,1.61,2.15,6.54,2.15h.45c4.48,0,6-.09,6-2.24,0-.9-.18-2.06-.63-3.76l-2.69-10.56Z"/>
      <path class="cls-11" d="M50.45,180.83c.09-4.92.18-12.17.18-16.74,0-2.24-.18-2.69-.72-2.69-.72,0-.98.63-1.7,2.42-3.58,8.95-10.56,29.09-13.25,38.05-.98.45-4.48.9-6.45.45-2.69-10.74-8.24-29.54-11.82-40.29-.63-1.88-.98-2.42-1.7-2.42-.54,0-.72.36-.81,2.6-.18,4.48-.27,13.07-.27,19.96,0,14.32.45,20.59.45,20.59-.72.18-5.28.36-6.8.18,0,0,.54-10.47.54-27.04,0-17.9-.27-29.09-.27-29.09,1.34-.45,11.55-.72,12.98-.45,2.78,10.74,8.42,30.26,11.1,38.32.27.81.63,1.52,1.25,1.52.54,0,.81-.54,1.16-1.52,3.58-9.85,9.4-25.78,12.89-38.32,1.43-.27,10.3-.18,11.37.45,0,0-.09,11.19-.09,29.09v12.98c0,8.5,1.79,10.12,8.95,10.12,4.92,0,7.79-.27,7.79-.27.27.89.36,2.69.18,4.03,0,0-4.3,1.07-11.91,1.07-12.09,0-13.52-1.97-13.34-10.47l.27-12.53Z"/>
      <path class="cls-11" d="M103.71,190.5c2.15,6.98,2.69,7.79,9.85,7.79,2.69,0,4.57-.18,4.57-.18.45.9.36,4.48,0,4.92,0,0-4.03.81-10.74.81-8.95,0-10.47-1.7-12.17-8.24l-2.33-9.13c-.72-2.69-1.52-2.87-6.62-2.87h-.45c-7.16,0-8.33.54-8.95,3.04-1.34,5.28-1.79,8.95-1.79,8.95-.72.09-1.34.09-2.42.09-2.95,0-6.62-.18-7.88-.54,5.1-17.01,8.95-30.44,13.79-48.79,1.97-.18,4.57-.36,6.98-.36s4.66.18,6,.36c2.78,11.46,7.16,27.66,10.83,39.75l1.34,4.39ZM87.33,161.59c-1.16-4.48-1.61-6.27-2.69-6.27-1.25,0-1.88,2.51-3.04,6.98l-2.42,9.58c-.45,1.88-.81,3.22-.81,4.12,0,2.06,1.16,2.15,6.09,2.15h.45c4.03,0,5.82-.09,5.82-2.24,0-.89-.27-1.79-.72-3.76l-2.69-10.56Z"/>
      <path class="cls-11" d="M119.2,152.28c-2.06.45-8.42.63-9.58.18-.45-.81-.72-4.3-.45-5.73,2.15-.18,6.54-.54,9.67-.09.45,1.43.45,4.3.36,5.64ZM118.21,194.26c-3.13.27-7.52,0-8.15-.18,0,0,.18-8.77.18-16.38,0-12.09-.45-21.66-.45-21.66,1.79-.45,7.07-.63,8.86-.09l-.45,38.32Z"/>
    </g>
  </g>
  <g id="Artwork">
    <g>
      <g id="Leaf">
        <path class="cls-13" d="M40.77,115.17c-5.29-.18-10.13.93-15.35,1.31-2.33.17-4.64.46-6.97.67-1.07.09-2.56.43-3.61,0-.95-.39-1.49-1.13-2.57-1.42-1.39-.37-3.35.46-3.59,2.04-.66,4.31,2.61,9.93,5.3,13.19,2.89,3.51,7.81,6.45,12.28,7.14,3.11.48,6.31-.12,9.44-.16,1.88-.02,4.57.41,6.05-1.06,1.57-1.57,1.07-4.45,1.05-6.43-.04-3.18.15-6.33.57-9.49.06-.46-.02-.87-.19-1.23.96-1.69.15-4.47-2.42-4.55Z"/>
        <path class="cls-17" d="M41.27,129.38c-1.81-1.83-4.91-1.95-7.28-2.41-1.23-.24-3.01-.81-4.63-1.62.7.02,1.38.06,2.03.08,2.44.1,3.08-2.64,1.96-4.18,1.75-1.63.37-5.28-2.4-4.41-3.1.97-6.12.46-9.29.29-1.77-.1-3.84-.31-5.28.96-3.53,3.11,1.51,7.4,3.91,9.14,1.93,1.39,3.78,2.61,5.44,4.33,1.51,1.56,3.05,2.53,5.2,2.98,3.11.65,9.79,1.35,11.02-2.63.27-.88-.03-1.88-.67-2.52Z"/>
        <path class="cls-3" d="M40.44,121.2c1.71-1.38,1.09-5.06-1.84-5.32-2.18-.19-4.4,0-6.48.74-2,.7-3.98,2.46-6.13,2.4-1.22-.04-2.54.93-2.81,2.14-.92,4.13,2.99,6.53,6.26,8.11,3.1,1.51,7.67,2.71,10.96,1.08,1.37-.68,2.09-1.91,2-3.42-.1-1.66-.82-4.32-1.95-5.72Z"/>
        <path class="cls-8" d="M39.97,123.86c-.06-.21-.19-.34-.34-.4.02-.01.05-.02.07-.04.73-.4.08-1.52-.65-1.12-.44.24-.89.44-1.35.6,0-.02,0-.04-.02-.06-.94-1.61-1.98-3.21-3.52-4.31-1.6-1.15-3.64-1.51-5.55-1.1-.82.17-.47,1.42.34,1.25,1.62-.34,3.33.04,4.65,1.04,1.22.92,2.06,2.25,2.82,3.55-1.25.28-2.54.36-3.83.35-1.17-.02-2.35-.08-3.52-.17-.02-.05-.02-.1-.06-.14-.87-1.13-2.03-1.9-3.28-2.55-1.45-.74-2.94-1.42-4.41-2.13-.75-.36-1.41.76-.65,1.12,1.4.67,2.81,1.33,4.2,2.02.84.42,1.7.88,2.41,1.52-.48-.05-.97-.1-1.45-.15-2.4-.27-4.73-.76-7-1.61-.29-.11-.58-.22-.87-.32.03-.76-.13-1.52-.5-2.2-.46-.85-1.2-1.49-2.09-1.86-.31-.13-.73.14-.8.45-.09.38.12.66.45.8-.13-.05,0,0,.02.01.04.02.08.04.12.06.08.04.16.09.23.14.04.03.09.06.13.09.01,0,.01,0,.02.01,0,0,0,0,0,0,.07.06.14.11.2.18.06.06.13.13.19.19.03.03.06.07.09.1,0,0,.03.04.05.06.02.02.04.05.04.06.03.04.06.09.09.13.05.08.09.15.14.23.04.08.08.16.12.24,0,0,0,0,0,.01,0,0,0,0,0,0,.01.04.03.08.05.13.06.17.11.34.14.52,0,.02.02.12.02.1,0,.01,0,.03,0,.04,0,.02,0,.04,0,.06-1.41-.44-2.84-.7-4.36-.44-.82.14-.47,1.39.34,1.25,2.41-.41,4.71.86,6.92,1.6.5.17,1.01.31,1.53.45-.24.09-.48.19-.72.29-.33.14-.67.25-1.02.33-.29.06-.6.03-.9-.09-.32-.13-.71.14-.8.45-.1.37.13.67.45.8.77.31,1.65.14,2.4-.15.7-.27,1.41-.68,2.13-.69.29,0,.53-.21.61-.48,1.15.2,2.31.34,3.47.45,1.15.11,2.33.24,3.52.32-.67.49-1.35.98-2.04,1.43-.84.55-1.75,1.04-2.79,1.02-.83-.02-.83,1.28,0,1.3,1.19.03,2.29-.46,3.27-1.09,1.03-.65,2-1.4,2.99-2.11.16-.12.27-.29.3-.47,2.32.06,4.62-.14,6.73-1.04-.02.09-.02.19,0,.31.16.58-.12,1.14-.42,1.63-.35.57-.75,1.14-1.24,1.6-.51.47-1.14.8-1.74,1.16-.32.19-.64.39-.96.58l-.51.3c-.07.04-.13.08-.2.12-.49-.14-1.1.37-.76.93.59.99,1.84-.07,2.48-.45.81-.49,1.67-.94,2.4-1.54.66-.55,1.2-1.31,1.65-2.04.49-.79.81-1.7.55-2.63Z"/>
      </g>
      <g>
        <path class="cls-16" d="M110.22,74.87c-2.65,1.87-4.76,4.13-6.85,6.58-1,1.17-2.07,2.27-3.39,3.08-.47.29-.97.54-1.47.78.12-.22.24-.43.36-.65.83-1.55,1.64-3.11,2.44-4.67,1.58-3.09,3.11-6.21,4.58-9.36.53-1.13-1.15-2.11-1.68-.98-1.43,3.05-2.91,6.08-4.44,9.08-.75,1.48-1.52,2.95-2.3,4.41-.09.18-.19.35-.28.53.04-.14.07-.28.11-.41.37-1.41.76-2.82,1.09-4.24.67-2.84,1.12-5.74.88-8.66-.1-1.24-2.05-1.25-1.94,0,.28,3.27-.36,6.46-1.17,9.61-.4,1.56-.83,3.11-1.21,4.68-.27,1.09-1.17,3.23.18,3.92.38.2.86.17,1.18-.15.05-.05.08-.1.13-.14,1.39-.53,2.79-1.07,4.09-1.8,1.42-.8,2.65-1.85,3.73-3.07,1.06-1.18,2.02-2.45,3.13-3.58,1.17-1.2,2.45-2.3,3.83-3.27,1.01-.72.04-2.4-.98-1.68Z"/>
        <path class="cls-14" d="M99.46,59.9c-1.66-.35-3.4.78-3.68,2.45-.31,1.9.37,4.28.93,6.08.04.13.1.25.15.37.21,1.5,2.57,2.41,3.66.75,1.62-2.47,3.15-8.75-1.07-9.65Z"/>
        <path class="cls-14" d="M109.12,58.91c-2.02-1.43-4.16.5-4.9,2.36-.4,1.01-.69,2.19-.72,3.27-.03,1.07.45,1.98.57,3.01-.11,1.03.5,2.25,1.83,2.4,2.11.24,3.21-3.26,3.77-4.78.7-1.88,1.39-4.87-.56-6.25Z"/>
        <path class="cls-14" d="M118.65,64.93c-1.9-1.51-4.65-.27-6.08,1.28-1.63,1.78-2.9,4.73-2.8,7.16,0,.18.04.34.09.5.14.83.75,1.56,1.85,1.54,2.43-.05,4.88-2.4,6.44-4.1,1.45-1.59,2.55-4.76.51-6.38Z"/>
      </g>
      <g id="Flower">
        <path class="cls-12" d="M61.14,64.53s13.4-12.89,22.06-8.14c0,0,15.61-2.21,17.48,16.12,0,0,1.53,10.86-5.77,13.23,0,0,13.4-4.58,14.25,3.73,0,0,7.64,3.05,4.07,11.2,0,0,5.43,14.08-12.39,19.34,0,0-8.72-.51-13.18-2.88,0,0,13.35,14.59,10.81,23.08,0,0-5.94,10.18-13.91,6.11,0,0-11.03,3.56-13.06-8.65,0,0-7.97,6.79-17.14,3.56,0,0-4.58-3.39-8.14-3.56,0,0-6.11,0-5.43-6.45,0,0-.17-8.48-2.21-10.01,0,0-.85-5.43.68-5.77,0,0-14.42,3.22-18.49-3.05,0,0-11.71-13.23-4.75-21.38,0,0,3.9-2.04,6.62-1.02,0,0,7.13-4.41,10.69-2.21l6.11,1.19s-9.16-5.26-10.86-11.03c0,0-2.88-2.55.68-8.99,0,0-1.37-4.25,5.88-9.13,0,0,10.98-6.63,16.55-3.05,0,0,3.89,2.67,4.27,3.97,0,0,3.16-.4,5.2,3.8Z"/>
        <path class="cls-12" d="M89.37,84.53c-.38-1.62-2.1-2.96-3.74-1.76-2.23,1.63-4.35,3.37-6.27,5.35-1.01,1.04-1.95,2.14-2.85,3.27-.14.17-.4.61-.69,1.09-.02-2.01,1.24-4.87,1.35-6.09.27-2.97-.82-6.15-1.43-9.02-.42-2-2.98-2.39-4.33-1.14-2.28,2.1-2.4,5.44-3.05,8.31-.01.04-.23.73-.25,1.11-.36-.2-1.17-.48-1.5-.7-1.45-.97-2.4-2.35-3.13-3.91-.98-2.09-4.18-1.39-4.74.62-.81,2.9,1.75,5.63,3.17,7.99,1.97,3.27,3.93,6.54,5.9,9.81,1.54,2.56,5.3.72,4.8-1.75.22.25.47.48.74.69,1.63,1.25,3.02.84,4.2-.15.99.23,2.11-.01,2.87-1.02,2.65-3.51,7.06-5.24,10.02-8.47,1.47-1.6.59-3.63-1.08-4.21ZM68.82,91.07c.11,0,.23,0,.34-.02.68-.09,1.26-.34,1.77-.69-.02.13-.05.25-.06.38-.17,1.34-.13,2.81.25,4.16-.77-1.28-1.53-2.55-2.3-3.83Z"/>
        <path class="cls-7" d="M100.78,75.39c-.26-1.78-2.68-2.06-3.79-1-1.85,1.77-3.01,3.78-3.59,6.28-.04.15-.05.3-.06.44-.03.03-.07.07-.1.1-.21.22-.62.56-.93.9-.09-1.85-1.56-3.82-3.26-4.22-2.05-.48-4,.74-5.21,2.3-.98,1.26-1.63,2.05-2.74,2.8.08-1.9.08-3.81.01-5.72-.03-.94-.52-1.59-1.24-1.96.44-.89.54-1.94.07-3.14-1.46-3.79-6.07-3-8.59-.92-1.32,1.09-2.36,2.5-2.99,4.1-.31.8-.47,1.52-.61,2.36-.29,1.74-.07,4.09-2.34,2.74-1.93-1.15-2.04-5.01-1.87-7.02.22-2.64,1.69-4.99,2.83-7.32.38-.79.29-1.54-.05-2.14,1.54-1.07,3.41-1.79,5-2.56,1.32-.64,2.64-1.27,3.95-1.91.14.13.32.22.53.26,1.21.19,2.59.42,3.81.19.61-.12,1.1-.48,1.36-.97.66.08,1.3.1,1.97.03.8-.08,1.64-.26,2.44-.14.69.1,1.39-.17,1.59-.9.17-.61-.21-1.49-.9-1.59-1.12-.16-2.15-.04-3.27.06-1.07.1-2-.13-3.04-.31-.04,0-.08,0-.12-.01-1.46-.57-3.46.1-4.76.71-2.45,1.16-4.9,2.35-7.33,3.55-1.35.66-2.63,1.39-3.74,2.34-.54.11-1.03.45-1.36,1.12-1.68,3.43-3.47,6.64-3.47,10.56,0,3.57.83,7.52,3.74,9.87,2.41,1.95,5.96,2.33,7.99-.35,1.04-1.38,1.14-2.89,1.38-4.54.15-1.06.29-1.97.74-2.86.02.86.54,1.71,1.6,2.08.72.25,1.44.44,2.16.59.02,1.16.02,2.31-.02,3.47-.02.52-.21,4.44.02,4.3-2.52,1.46-.24,5.38,2.29,3.92.85-.49,1.3-1.13,1.55-1.88.34-.16.66-.41.93-.78.72-1.02,2.53-1.25,3.52-2.04.37-.29,2.78-3.53,2.78-3.53-.05-.02.47,3.06.65,3.39.55,1.02,1.38,1.77,2.51,2.05,2.98.75,4.59-2.66,6.35-4.38,2.5-2.44,4.12-4.71,3.59-8.32Z"/>
        <path class="cls-9" d="M65.35,94.87c-.68-4.88-3.48-10.05-7.07-13.3-3.72-3.37-6.34-7.65-11.77-8.04-2.58-.18-3.77,3.28-2.06,4.98.79.78,3.16,2.41,3.47,3.45,0,.02-.22,1.39-.2,1.9.02.45.08.85.2,1.22-1.79-.6-3.64-1.28-3.96-1.34-2.32-.42-4.78,1.97-3.29,4.28.72,1.12,1.53,1.92,2.62,2.67.64.44,1.01.76,1.23,1.11-1.49.01-3.36-.26-4.33-.16-2.12.21-4.04.75-5.96,1.68-1.89.92-1.92,4.13,0,5.03,1.4.66,2.82,1.27,4.26,1.84-2.08.37-4.12.85-6.16,1.4-2.69.72-2.87,5,0,5.62,5.29,1.15,10.59,2.12,16.02,1.95,2.07-.06,3-1.88,2.78-3.47,2.21-.11,4.44-.59,6.44-1.11,4.47-1.17,8.47-4.72,7.78-9.71ZM57.82,90.66c-.65-.16-1.33-.21-2-.09-.44.08-.84.21-1.21.38.15-.09.3-.17.45-.28.84-.62,1.41-1.43,1.65-2.36.47.71.81,1.53,1.11,2.35Z"/>
        <path class="cls-1" d="M47.02,103.82c-1.55.2-2.8.56-4.06,1.42-.99-.77-2.52-.84-3.28.58-2.81,5.26-11.5,2.76-16.36,4.53-1.94.71-2.13,2.95-.54,4.14,3.55,2.67,7.89,2.19,12.01,1.39,2.28-.44,4.4-1.01,6.25-2.46,1.87-1.46,3.42-4.75,5.98-5.07,2.86-.36,2.89-4.9,0-4.53Z"/>
        <path class="cls-1" d="M36.57,104.56c-.74.04-1.48.08-2.22.11.43-.13.87-.26,1.3-.39,2.33-.73,2.05-4.66-.6-4.45-3.02.23-6-1-8.96-.6-2.36.32-4.79,2.13-4.32,4.79,1.02,5.79,10.62,5.32,14.81,5.08,2.9-.16,2.92-4.7,0-4.53Z"/>
        <path class="cls-1" d="M59.11,78.78c.1-.9.05-1.83-.03-2.65-.02-.22-.07-.54-.15-.92.05-1.17.21-2.33.51-3.51.59-2.33,1.9-4.93,1.39-7.39-.36-1.75-1.96-2.91-3.76-2.57-2.25.43-2.91,2.81-3.21,4.73-.43,2.79,0,5.37.45,8.12.04.24.06.53.07.84-.01.34-.02.69-.01,1.03-.97-.9-2.36-1.68-3.39-2.41-2.23-1.57-4.65-3.57-7.41-3.97-1.85-.27-4.52-.1-5.41,1.83-.47,1.02-.33,1.88.35,2.75,1.74,2.2,6.11,3,7.52,5.72-4.35-.14-13.28.19-9.79,5.77.53.85,3.17,2.07,3.22,3.03.07,1.28-3.89.77-4.75.8-2.7.09-5.6.45-7.29,2.76-.47.64-.37,1.64,0,2.29,1.67,2.94,5.67,3.48,8.71,3.67,2.58.16,2.86-3.36.89-4.31.78.04,1.45.07,1.85.03,1.75-.18,3.47-.57,4.52-2.1.89-1.3.97-3,.43-4.46-.1-.27-.23-.53-.37-.79.51,0,1.04-.17,1.51-.61.98-.9,2.72-.96,3.84-1.79.18-.13.33-.29.47-.44.96-.16,1.79-.88,1.75-2.15-.04-1.08-.32-2.06-.75-2.97.08.06.15.11.23.16,1.35,1,2.94,2.63,4.68,2.96.12.45.24.89.38,1.34.88,2.77,5.25,1.59,4.37-1.21-.37-1.19-.65-2.38-.82-3.59Z"/>
        <path class="cls-1" d="M29.35,66.16c-.47,1.25-.46,2.59-.83,3.87-.41,1.41-.9,2.71-.92,4.2-.06,2.92,4.48,2.92,4.53,0,.02-1.21.61-2.31.89-3.48.27-1.13.28-2.29.7-3.39,1.03-2.73-3.35-3.92-4.37-1.21Z"/>
        <path class="cls-7" d="M73.03,116.45c.81-.73,1.25-1.92,1.02-2.97.02-.13.03-.26.03-.4.07-3.61-2.34-5.02-5.5-5.29.42-1.16.15-2.51-1.28-3.26-3.43-1.78-7.35-1.54-10.72.03-2.77.63-5.42,1.81-7.11,3.74-1.63,1.85-1.29,3.58-.42,5.61.78,1.82.05,3.95,1.11,5.75.92,1.57,2.78,2.41,4.56,2.32,2.71-.14,4.16-2.23,6.22-3.63.51-.34,1.37-.47,1.52-.78.14.95-.39,3.08-.51,3.59-.36,1.61-.98,3.02-1.86,4.28-.11.07-.22.14-.33.2-2.11,1.23-2.99,2.49-2.6,5,.38,2.37,3.39,2.53,4.87,1.29.77-.64,1.46-1.36,2.08-2.12.76-.53,1.49-1.14,2.23-1.7.49-.37.97-.74,1.45-1.12,1.22-.2,2.5.52,3.81-.14,1.37-.68,1.95-1.97,2.18-3.43.29-1.91-.35-3.53-.78-5.34-.15-.62-.11-1.14.02-1.62Z"/>
        <path class="cls-10" d="M85.07,101.35c-1-1-2.35-1.43-3.72-1.63-1.04-.16-2.1-.28-3.15-.38,0-.17-.02-.35-.04-.52.16-.07.31-.14.46-.22.06-.03.12-.06.17-.09,0,0,.11-.05.15-.07.02,0,.06-.02.1-.03,0,0,.13,0,.17,0,.51.04.99-.48.97-.97-.03-.56-.43-.93-.97-.97-.54-.04-1.01.18-1.47.41-.04-.11-.09-.23-.14-.34.25-.5.49-1.01.63-1.56.19-.74-.47-1.35-1.2-1.2-.59.13-1.08.49-1.51.88-.03.02-.05.05-.07.07-.17-.16-.39-.26-.65-.26-.18,0-.36,0-.55,0,.02-.06.05-.13.07-.19.02-.05.04-.1.07-.14.18-.38.4-.74.65-1.08.02-.03.14-.18.14-.18.05-.07.11-.14.16-.2.14-.17.29-.33.44-.49.31-.34.72-.65.94-1.06.33-.62.21-1.51-.47-1.86-.56-.29-1.07-.08-1.57.18-.04-.05-.07-.1-.11-.15-.56-.6-1.4-.42-1.96.04-.08.07-.16.15-.24.23-.01-.05-.02-.09-.04-.14-.12-.37-.41-.65-.81-.7-.42-.05-.72.14-.97.46-.4.53-.57,1.18-.73,1.81-.13.49-.24.86-.47,1.24,0,0,0,0,0,0-.16-.7-.24-1.34-.26-2.07-.02-.52-.44-.97-.97-.97s-.94.45-.97.97c-.01.24-.03.5-.04.76-.16-.56-.31-1.12-.42-1.69-.16-.79-1.43-.98-1.78-.23-.41.87-.32,1.75.06,2.61.18.41.44.78.69,1.15.13.34.28.68.47.98-.14.06-.29.11-.43.19-.03.01-.05.03-.07.05-.15-.1-.33-.16-.52-.18-.55-.05-1.09.24-1.43.66-.08.1-.15.21-.21.32-.14-.11-.28-.22-.44-.31-.62-.35-1.31-.46-2-.3-.39.09-.74.53-.71.94.05.67.37,1.15.83,1.63.19.2.24.24.35.44,0,.01,0,.02.01.03-.71-.11-1.43-.13-2.16-.03-.92.11-1.37,1.26-.49,1.81.29.18.6.35.92.48-.24.27-.28.66-.17,1-.13.04-.26.07-.4.11-.51.15-1.03.35-1.19.92-.17.62.25,1.17.79,1.41,1.06.47,2.23.1,3.33.09.19,0,.35.03.49.08.04.3.1.59.16.88-.5.18-.85.61-1.21,1-.55.6-1.1,1.2-1.65,1.8-.69.75,0,1.78.95,1.62.88-.15,1.75-.29,2.63-.44-.11.09-.22.18-.31.29-.48.57-.54,1.47,0,2.03.55.58,1.44.49,1.99-.04.28-.27.47-.6.65-.94.02-.03.05-.08.09-.14.03.88,1.23,1.17,1.72.57.09.21.22.39.39.55.02.01.04.03.05.04-.02.04-.03.11-.03.23-.13.22-.14.59-.21.84-.1.37-.22.74-.35,1.1-.23.65-.52,1.27-.85,1.88-.32.6.06,1.53.84,1.46,1.38-.12,2.03-1.68,2.53-2.8.3-.67.56-1.36.83-2.05.11-.29.2-.74.44-.97.13-.13.34-.2.54-.25.13.83.5,1.59,1.34,2,.19.09.49.21.75.21-.04.29.13.82.16,1.08.05.39.1.77.16,1.16.15,1.11,1.9.81,1.91-.26,0-1.18.04-2.54-.28-3.7,0,0,0,0,.01-.01.39-.61,2.15,1.88,2.3,2.11.55.89,1.81.35,1.82-.48.64-.08,1.2-.76.75-1.43-.23-.35-.48-.67-.75-.98,1.02.13,1.68-1.18.7-1.78-.59-.36-.99-.94-1.63-1.24.28.05.57.07.86.03.67-.08,1.05-.55.94-1.23-.14-.81-.67-1.39-1.27-1.89.4.02.81-.02,1.24-.1,1.17-.22,2.32-.31,3.51-.23.86.06,1.25-1.09.69-1.66ZM72.04,93.4c.38-.05.7-.3.81-.7.05-.18.11-.35.18-.53,0-.03.02-.05.03-.08,0,0,0,0,0,0,.05-.09.08-.18.13-.27.08-.16.18-.33.28-.48.01-.02.03-.04.04-.06.09.09.18.17.29.22-.2.25-.4.5-.58.76-.33.49-.6,1.02-.8,1.58-.15-.08-.29-.16-.44-.23.02-.07.04-.14.06-.22ZM77.65,106.25c0-.14-.01-.28-.04-.42.23.14.47.26.72.36-.23-.02-.46,0-.68.05Z"/>
        <path class="cls-2" d="M77.81,99.52c-.06-.23-.15-.44-.26-.63.68-1.76-.66-3.96-2.72-3.98-.17,0-.34.01-.5.03-.13-.11-.27-.22-.43-.32-.15-.09-.3-.18-.45-.26-.73-.74-1.87-.93-2.9-.61-.55-.27-1.18-.4-1.74-.31-.81.12-1.41.5-1.83,1.05-1.1.53-1.97,1.52-2.29,2.71-.12.45-.13.89-.09,1.32-.61.62-1,1.37-1.14,2.26-.1-.14-.2-.25-.36-.34-.07-.04-.18-.09-.26-.11-.14-.04-.27-.04-.42-.02-.14.02-.26.05-.39.12-.07.04-.17.11-.22.17-.14.14-.24.32-.29.51-.05.18-.07.38-.09.57-.01.12-.02.24-.02.36,0,.21.03.42.07.62.02.14.06.27.1.41.08.24.22.45.45.58.21.12.52.17.75.1.11-.04.22-.09.32-.16.16-.04.31-.12.43-.24.03-.03.05-.06.07-.09.26,1.32.76,2.57,1.67,3.51-.34-.03-.67-.06-1.01-.09-.09.01-.17.02-.26.03-.13.03-.24.09-.33.17-.16.12-.31.3-.35.5-.1.48-.12.95.13,1.39.3.53.9.69,1.47.71.73.03,1.51-.2,2.12-.62.21-.15.38-.33.45-.58.02-.06.01-.13.01-.2,1.83.52,3.98.14,5.63-.64,1.85-.88,2.57-2.04,2.78-3.68.05-.03.09-.07.13-.09.43-.25.75-.56,1.07-.92.79-.9,1.03-2.06.71-3.22Z"/>
        <path class="cls-15" d="M113.31,101.46c.32-1.84,1.27-3.37.59-5.48-.59-1.83-1.87-2.95-3.31-4.11-1.64-1.32-2.1-3.01-3.55-4.43-3.53-3.47-9.02-1.33-12.74.57-3.71,1.89-.44,7.49,3.27,5.59.93-.47,3.26-1.9,4.38-1.53.81.27,1.18,1.15,1.62,1.94-.03,0-.07,0-.1.01-1.73-1.36-4.56-1.19-4.95,1.51-.16,1.13-.35,2.26-.56,3.38-1.04,1.82-1.74,4.06-2.04,5.82-.15.05-.29.1-.43.16-3.03,1.37-6.83,5.88-7.08,9.28-.28,3.87,3.85,6.54,7.29,6.92,3.6.4,6.73-.34,9.74-1.88.41-.12.81-.31,1.19-.61.39-.26.79-.52,1.18-.77.19-.12.36-.26.51-.4,2-.89,3.23-2.74,4.43-4.59,2.11-3.26,2.47-7.93.56-11.36Z"/>
        <path class="cls-4" d="M101,90.18c1.02-2.26-1.7-4.77-3.99-4.19-1.36.34-2.32.94-3.37,1.83-1.42,1.2-1.3,2.76-.44,3.9-.57.54-1.09,1.17-1.34,2.01-.22.74-.27,1.58-.22,2.35.03.45.18,1.73.4,2.24-.48.35-1.25,1.07-1.34,1.21-.46.62-.72,1.25-.85,2.02-.08.48-.09.89-.05,1.25-.63.12-1.26.34-1.84.93-1.28,1.29-2.7,3.95-2.84,5.8-.16,2.19,1.03,3.57,2.68,4.6-.4,1.26-.07,2.67,1.5,3.43,3.03,1.48,9.22,2.41,10.09-2.21.28-1.47-.2-2.84-1.49-3.66-1.86-1.17-3.97-1.5-5.8-2.62.07-.12.13-.23.2-.34,1.95-.22,3.94-.61,4.84-2.56.46-.99.49-2.31-.09-3.25-.04-.06-.07-.12-.1-.17.9-.76,1.47-1.67,1.7-2.83.26-1.3-.51-2.52-.37-3.68.16-1.33,1.88-1.94,2.46-3.2.25-.53.42-1.04.44-1.63-.04-.39-.1-.78-.17-1.16,0-.02,0-.03,0-.04Z"/>
        <path class="cls-6" d="M95.98,89.02c-3.41.34-5.93.81-8.76,2.87-2.58,1.88-5.26,3.96-7.08,6.6-3.41,2.49-3.23,6.22-1.82,9.69-1.88-.58-4.32.41-4.32,2.97-.01,5.48-.55,11.25.63,16.64.41,1.85,1.95,2.5,3.43,2.25,1.73,2.28,6.09,1.42,5.87-1.85-.11-1.67-.17-3.34-.19-5.01.01.01.03.02.04.03.52.43,1.11.69,1.72.79.41.77.83,1.53,1.49,2.25,2.84,3.07,7.41-1.52,4.58-4.58-.7-.76-2.37-3.55-2.56-4.5-.03-.14-.06-.26-.1-.39,1.81-.32,3.58-1.27,4.06-3.07.6-2.28-1.26-4.37-3.08-5.45-.32-.19-.43-.33-.48-.43.47-.2,1.29-.33,1.69-.58.94-.59,1.79-1.54,2.07-2.64.17-.68.07-1.17,0-1.83.34-.8.4-2.54.35-2.79-.1-.63-.41-.98-.64-1.53,0,0,0,0,0,0,.07-.04.17-.1.28-.19,1.45-1.14,2.94-2.18,4.48-3.22,2.41-1.62,1.83-6.38-1.63-6.04ZM85.59,101.95s.07-.08.1-.13c.29-.42.62-.82,1-1.21.01.03.03.07.05.1-.16.47-.31,1.06-.36,1.3-.34.11-.65.26-.93.47-.07.04-.14.1-.2.14.15-.22.27-.45.35-.69Z"/>
        <path class="cls-4" d="M94.96,127.42c-.67-1.5-1.99-2.31-3.37-3.08-1.35-.75-2.39-1.98-3.88-2.48-3.27-1.11-6.83,1.4-6.44,4.96,0,.01,0,.03,0,.04,0,.29.04.59.13.88-.02.21-.04.42-.06.63-1.32-.75-2.71-.83-4.04.85-2.04,2.6-3.73,7.58-3.83,10.85-.11,3.31,2.06,6.43,5.59,6.39,2.18-.03,3.63-.65,5.82-.03,2.18.62,3.85,1,6.16.88,3.32-.17,3.34-5.36,0-5.18-3.64.19-6.74-1.72-10.45-1.13-1.22.19-1.73.77-1.87-1.37-.05-.8.51-1.91.75-2.64.28-.85.58-1.77.95-2.65.28.3.54.59.79.83,1.36,1.33,3.85.78,4.33-1.14.52-2.11,1.41-4.8.94-6.98.05.03.1.06.14.09.43.31.81.68,1.24.99.86.62,2.17.94,2.61,1.92.58,1.29,2.42,1.57,3.55.93,1.32-.75,1.5-2.28.93-3.55Z"/>
        <path class="cls-15" d="M99.48,137.18c-.13-1.01-.61-1.71-1-2.62-.44-1.02-.48-2.26-1.09-3.21-1.02-1.59-2.51-1.56-4.21-1.56-.38,0-.71.08-.99.22-.9-.3-1.7-.9-2.44-1.52-.14-.11-.28-.21-.43-.3-.2-.55-.42-1.12-.64-1.72-1.02-2.71-5.4-1.53-4.37,1.21.15.39.43.96.69,1.59-.35.37-.58.86-.56,1.46.03.92.07,1.84.1,2.76-.16.28-.47.5-1.03.68-1.4.45-1.24-.09-2.27-.69-.93-.54-1.99-.77-3.05-.4-2.27.78-2.81,3.38-2.75,5.5.06,2.27,1.08,4.45,3.27,5.34,2.05.83,4.14.17,6.25-.08.11.33.24.66.4.99,2,4.04,5.64,3.41,9.08,1.24,3.15-1.99,5.57-4.9,5.04-8.88Z"/>
        <path class="cls-15" d="M53.74,96.7c-3.29-1.93-6.8-3.37-10.47-4.39-1.93-.54-3.88-1.04-5.82-1.55-1.87-.5-3.75-1.05-5.69-1.17-1.75-.12-3.37.26-4.96.96-1.47.64-2.83,1.53-4.32,2.13-.66.27-1.36.49-2.07.56-.84.09-1.7-.01-2.51.3-1.36.52-2.16,2.06-2.56,3.38-.93,3.01.02,6.55,2.45,8.58.95.8,2.33-.57,1.37-1.37-1.86-1.56-2.66-4.13-2.01-6.48.15-.54.37-1.06.68-1.53.47-.73.99-.85,1.82-.88,1.43-.05,2.72-.38,4.03-.96,2.76-1.21,5.07-2.97,8.23-2.72,1.7.13,3.37.66,5.02,1.09,1.74.46,3.48.91,5.21,1.38,3.73,1.01,7.27,2.4,10.62,4.36,1.08.63,2.06-1.05.98-1.68Z"/>
        <path class="cls-15" d="M58.91,65.61c-.37-2.61-3.21-2.98-5.25-3.58-2.05-.61-3.64-2.18-5.54-3.12-2.17-1.07-4.26-.97-6.42.07-2.48,1.19-4.85,2.64-7.25,3.97-2.08,1.15-4.34,2.63-4.48,5.24-.07,1.25,1.87,1.25,1.94,0,.13-2.3,3.48-3.54,5.16-4.47,1.37-.76,2.74-1.51,4.1-2.27,1.16-.64,2.4-1.41,3.76-1.43,2.24-.03,4.1,1.79,5.92,2.85,1.07.62,2.17,1.01,3.37,1.29,1.14.27,2.62.58,2.81,1.96.08.52.73.8,1.2.68.56-.15.75-.68.68-1.2Z"/>
        <path class="cls-15" d="M99.61,72.85c-.42-1.04-1.1-1.91-1.69-2.85-.62-.99-.92-2-1.09-3.15-.35-2.34-.7-4.52-2.86-5.89-2.23-1.41-5.07-1.95-7.59-2.57-1.21-.3-1.73,1.58-.52,1.87,2.35.58,5.05,1.05,7.13,2.37,1.93,1.24,1.7,3.72,2.14,5.7.23,1.03.67,1.96,1.24,2.85.54.83,1.21,1.65,1.52,2.61.34,1.04-.1,1.96-.47,2.93-.37.98-.62,1.98-.27,3.01.4,1.18,2.28.67,1.87-.52-.36-1.06.4-2.15.7-3.14.34-1.08.3-2.16-.12-3.21Z"/>
        <path class="cls-5" d="M111.52,100.45c-.51-.37-.55-.58-.34-1.19.21-.61.51-1.17.62-1.81.2-1.12.01-2.26-.48-3.28-.49-1.02-1.34-1.89-2.36-2.37-.89-.42-2-.53-2.81-1.11-.53-.38-.49-.99-.56-1.58-.08-.7-.28-1.35-.8-1.84-1.26-1.19-2.81-.46-4.3-.71-1.22-.21-1.75,1.67-.52,1.87.66.11,1.28.09,1.94.04.45-.03,1.14-.15,1.51.18.36.32.27,1.03.33,1.46.08.53.23,1.02.56,1.45,1.18,1.59,3.49,1.28,4.76,2.7.6.67.92,1.6.86,2.5-.07,1.07-.82,1.97-.84,3.06-.03,1.28.79,1.7,1.62,2.43.7.61.38,2.21.3,3.05-.22,2.21-.94,4.64-2.89,5.92-1.04.68-.07,2.37.98,1.68,1.99-1.31,3.1-3.42,3.57-5.72.24-1.15.35-2.33.37-3.5.02-1.43-.36-2.39-1.52-3.23Z"/>
        <path class="cls-15" d="M73.77,114.01c-.37-1.19-2.24-.68-1.87.52.82,2.69,1.04,5.46.95,8.26-.04,1.4-.15,2.8-.29,4.2-.13,1.35-.2,2.75-.5,4.07-.31,1.33-1.21,2.32-2.09,3.32-.92,1.04-1.88,2.04-2.89,2.99-1.29,1.22-4.07,4.18-5.98,2.39-.91-.85-2.29.52-1.37,1.37,1.6,1.5,3.9,1.25,5.65.16,2.06-1.28,3.85-3.21,5.47-4.99.79-.87,1.61-1.75,2.25-2.74.66-1.02.91-2.16,1.06-3.35.32-2.51.58-5.05.65-7.58.08-2.91-.17-5.84-1.03-8.63Z"/>
        <path class="cls-5" d="M97.05,135.63c-.32-1.66-1.22-2.93-2.06-4.35-.87-1.47-1.53-3.06-2.29-4.59-1.46-2.92-3.27-5.72-5.11-8.42-1.91-2.8-4.12-5.42-7.05-7.19-1.07-.65-2.05,1.03-.98,1.68,2.25,1.36,4.06,3.3,5.59,5.41,1.64,2.26,3.13,4.66,4.54,7.07,1.53,2.61,2.62,5.45,4.24,8.01.81,1.28,1.26,2.52,1.39,4.03.09,1.06.25,2.33-.19,3.33-.26.58-.69.74-1.25.95-.67.26-1.17.67-1.5,1.32-.28.55-.45,1.09-.96,1.48-.51.38-1.18.56-1.8.44-1.22-.22-1.75,1.65-.52,1.87,1.32.24,2.64-.05,3.68-.93.51-.43.87-.95,1.14-1.56.13-.29.22-.57.5-.75.33-.21.76-.27,1.11-.46,2.41-1.35,1.97-5.11,1.53-7.36Z"/>
        <path class="cls-18" d="M70.66,106.14c-.06-.23-.24-.47-.45-.58-.14-.07-.3-.12-.46-.13,0-.03,0-.05,0-.08-.02-.52-.43-.98-.97-.97-.45,0-.89-.02-1.34-.07-.03,0-.05,0-.06,0-.01,0-.03,0-.06-.01-.13-.02-.25-.04-.38-.06-.2-.04-.41-.08-.61-.13-.42-.11-.83-.24-1.23-.39-.02,0-.12-.05-.16-.06-.1-.04-.19-.08-.28-.13-.08-.04-.16-.08-.23-.13-.03-.02-.06-.04-.09-.06,0,0-.02-.02-.06-.06-.37-.35-1.01-.4-1.37,0-.35.38-.4,1,0,1.37.75.7,1.84,1.06,2.82,1.31.89.23,1.82.36,2.75.37-.01,0-.02.02-.03.03-.12.09-.25.17-.38.24-.02,0-.04.01-.07.02-.02,0-.04,0-.06-.02.02,0,.03.01.05.02,0,0,0,0,0,0-.19-.07-.38-.09-.59-.03-.23.06-.47.24-.58.45-.12.23-.18.5-.1.75.07.23.22.47.45.58.26.12.45.18.73.21.18.02.36-.01.54-.05.18-.04.35-.12.51-.19.11-.05.22-.11.32-.18.25-.16.49-.36.71-.55.23-.2.44-.43.57-.7.12-.23.17-.49.1-.75Z"/>
        <path class="cls-18" d="M67.37,101.86c-.33-.38-.68-.74-1.01-1.12-.17-.19-.33-.38-.49-.57-.04-.05-.08-.1-.12-.14,0,0-.02-.02-.02-.03-.08-.11-.17-.23-.25-.34-.13-.2-.26-.4-.37-.61-.06-.1-.11-.21-.16-.32-.03-.05-.05-.11-.07-.16,0,0,0,0,0,0,0,0,0,0,0-.01-.07-.23-.16-.44-.21-.68-.01-.06-.03-.11-.04-.17,0,0,0-.06-.01-.09,0-.03,0-.08,0-.09,0-.07,0-.15-.01-.22-.02-.51-.43-1-.97-.97-.51.02-.99.43-.97.97.08,2.46,1.82,4.2,3.35,5.93.34.38,1.03.37,1.37,0,.37-.41.36-.97,0-1.37Z"/>
        <path class="cls-2" d="M79.54,105.04c-.04-.12-.11-.22-.2-.31l-.2-.15c-.15-.09-.32-.13-.49-.13-.71-.06-1.42.12-2.05.45-.21.11-.38.36-.45.58-.06.23-.04.54.1.75.05.08.12.16.2.23,0,.02,0,.04,0,.06,0,.02.01.05.02.07.03.09.07.19.12.27.13.2.3.38.51.49.32.16.63.19.98.12.18-.04.35-.11.5-.22.3-.21.55-.46.73-.78.09-.15.16-.32.21-.49.06-.18.08-.37.1-.55,0-.13-.02-.26-.08-.37Z"/>
        <path class="cls-18" d="M68.5,97.9c-.2-.35-.42-.68-.66-1-.24-.33-.57-.66-.74-1.04-.31-.69,0-1.52.2-2.2.36-1.2-1.52-1.71-1.87-.52-.26.88-.48,1.79-.33,2.72.15.95.78,1.59,1.3,2.35.94,1.38,1.54,2.99,1.69,4.66.05.52.41.97.97.97.49,0,1.02-.45.97-.97-.16-1.75-.65-3.44-1.53-4.96Z"/>
        <path class="cls-18" d="M76.47,106.12c-.36-.33-1.03-.42-1.37,0-.05.06-.11.12-.16.18-.01.01-.03.03-.05.04-.05.03-.1.07-.15.09-.02.01-.04.02-.06.03-.05.02-.1.03-.16.05-.02,0-.05,0-.07.01-.06,0-.11,0-.17,0-.03,0-.07,0-.1,0,0,0,0,0,0,0-.7-.18-1.38-.45-2.06-.7-.48-.18-1.09.2-1.2.68-.12.55.17,1.01.68,1.2.82.3,1.65.69,2.53.77.86.08,1.79-.31,2.34-.97.17-.2.28-.41.28-.69,0-.24-.11-.52-.28-.69Z"/>
        <path class="cls-18" d="M73.84,98.45c-.35-.18-.69-.15-.97.02,0-.08,0-.16,0-.23,0-.28,0-.55.01-.83,0-.14.02-.27.03-.41,0-.05,0-.09.02-.14,0-.01,0-.04.01-.09.04-.23.09-.46.15-.68.03-.1.06-.19.09-.29,0-.03.09-.22.1-.26.09-.2.2-.4.31-.59.15-.23.14-.22.34-.43.35-.37.4-1.01,0-1.37-.38-.35-1-.4-1.37,0-.97,1.03-1.39,2.28-1.54,3.59-.37-2.18-.71-4.37-.63-6.57.05-1.25-1.9-1.25-1.94,0-.12,3.02.53,6.03,1.02,9,.09.52.73.81,1.2.68.13-.04.24-.1.34-.17,0,.07,0,.14.01.22.02.28.15.55.35.73-.64,1.21-1.09,2.52-1.32,3.86-.09.5.13,1.07.68,1.2.47.11,1.1-.14,1.2-.68.09-.49.2-.98.34-1.46.07-.24.15-.48.24-.71.04-.12.09-.23.13-.35.04-.11.05-.12,0-.03.02-.04.04-.09.06-.13.4-.9.9-1.75,1.5-2.54.31-.41.08-1.1-.35-1.33Z"/>
        <path class="cls-18" d="M79.05,99.44c-.02-.49-.43-1.01-.97-.97-.71.05-1.35.38-1.8.94-.4.5-.65,1.07-.96,1.62-.14.24-.29.47-.44.69-.04.05-.08.11-.11.16-.02.03-.18.23-.04.05-.08.1-.16.2-.25.3-.37.44-.79.83-1.23,1.2-.4.32-.36,1.04,0,1.37.42.39.95.34,1.37,0,.85-.69,1.58-1.53,2.17-2.46.28-.44.49-.91.75-1.35.03-.06.07-.12.1-.17,0,0,.03-.05.06-.08.02-.03.06-.08.07-.09.04-.04.09-.08.13-.13,0,0,0,0,0,0,0,0,0,0,0,0,.05-.03.1-.06.15-.09,0,0,0,0,0,0,.07-.01.28-.03.02-.01.51-.04,1-.42.97-.97Z"/>
        <path class="cls-2" d="M64.87,93.99s-.02-.06-.03-.09c-.04-.1-.08-.21-.14-.3-.12-.18-.25-.3-.43-.43-.02-.02-.05-.03-.08-.04-.09-.04-.19-.09-.29-.11-.41-.09-.85.01-1.15.32-.34.34-.41.81-.4,1.27,0,.37,0,.73,0,1.1,0,.25.11.51.28.69.17.17.45.3.69.28.02,0,.03,0,.05,0,.03.01.06.03.09.03.25.06.53.04.75-.1.21-.14.38-.33.45-.58.11-.37.17-.76.21-1.14.02-.15.03-.3.03-.44,0-.15-.02-.3-.05-.44Z"/>
        <path class="cls-2" d="M68.24,89.72c-.15-.24-.37-.41-.63-.49-.1-.03-.21-.05-.31-.05-.1,0-.21.02-.31.04-.34.1-.58.34-.77.62-.07.1-.12.2-.17.31-.08.18-.16.35-.21.54-.06.2-.08.41-.1.62-.01.14-.01.28,0,.42,0,.13.02.26.08.37.04.12.11.22.2.31.17.17.45.3.69.28.25-.01.51-.09.69-.28.13-.14.24-.33.28-.53.07-.05.13-.09.19-.14.04-.03.08-.07.11-.11.18-.22.28-.39.38-.66.02-.05.03-.09.04-.14.02-.13.05-.26.04-.39,0-.25-.06-.51-.19-.73Z"/>
        <path class="cls-2" d="M71.14,85.7c-.15-.19-.35-.34-.59-.4-.27-.07-.53-.03-.77.07-.24.1-.45.24-.63.42-.36.37-.56.85-.59,1.36-.02.4.14.76.22,1.14,0,.05,0,.1,0,.15-.03.23.13.53.28.69.17.17.45.3.69.28.25-.01.51-.09.69-.28l.15-.2s0-.01,0-.02c.16-.08.3-.2.37-.35.19-.43.33-.85.39-1.32.07-.53.12-1.1-.22-1.54Z"/>
        <path class="cls-2" d="M75.42,89.64c-.18-.09-.26-.12-.44-.14-.16-.02-.31-.02-.47.02-.23.05-.45.19-.62.35-.18.17-.28.39-.41.59-.21.25-.45.47-.61.75-.11.18-.19.38-.23.58-.05.28-.07.59.04.86.03.13.09.24.17.33.07.11.16.19.27.25.11.06.24.11.38.12.01,0,.02.02.03.02.23.12.5.18.75.1.08-.03.15-.07.23-.1.15-.09.26-.2.35-.35.56-.75,1.08-1.58,1.06-2.56,0-.32-.18-.69-.48-.84Z"/>
        <path class="cls-2" d="M81.33,96.87c-.34-.08-.71-.07-1.05.05-.27.1-.52.23-.75.39-.14.1-.27.19-.42.26-.06.02-.12.04-.19.05-.12.02-.24.09-.35.18-.12,0-.23.04-.33.11-.2.12-.39.35-.45.58-.06.25-.04.53.1.75.13.2.34.41.58.45.18.03.37.06.55.06.18,0,.37-.03.55-.06.22-.03.44-.1.65-.18.28-.11.55-.23.82-.38.24-.13.52-.26.71-.46.22-.22.35-.5.36-.81,0-.46-.31-.89-.77-1Z"/>
      </g>
    </g>
  </g>
</svg>